# xmcd CD database file
# Copyright (C) 1993-1998 Ti Kan
#
# Track frame offsets:
#	182
#	13982
#	27935
#	42982
#	55692
#	69347
#	83770
#	97815
#	111970
#	125372
#	140937
#	154687
#	170700
#	186722
#	199647
#	214892
#	229462
#	243327
#	254155
#	266885
#	279432
#	292427
#	305737
#	317237
#
# Disc length: 4400 seconds
#
# Revision: 0
# Processed by: cddbd v1.4b41PL1 Copyright (c) Steve Scherf et al.
# Submitted via: CDmax 1.5
#
DISCID=81112e18
DTITLE=Tampa Red - The Story Of The Guitar Wizard 1928-1940
DYEAR=1900
DGENRE=
TTITLE0=It's Tight Like That
TTITLE1=Juicy Lemon Blues
TTITLE2=You Got To Reap What You Sow
TTITLE3=I Wonder Where My Easy Rider's Gone
TTITLE4=Black Hearted Blues
TTITLE5=Boogie Woogie Dance
TTITLE6=New Strangers Blues
TTITLE7=King Fish Blues
TTITLE8=I'll Kill Your Soul
TTITLE9=Black Angel Blues
TTITLE10=Grievin' And Worryin' Blues
TTITLE11=You Missed A Good Man
TTITLE12=Maybe It's Someone Else You Love
TTITLE13=Stormy Sea Blues
TTITLE14=I Need You By My Side
TTITLE15=My Gal Is Gone
TTITLE16=Seminole Blues
TTITLE17=Travel On
TTITLE18=Rock It In Rhythm
TTITLE19=Bessemer Blues
TTITLE20=Anna Lou Blues
TTITLE21=Don't You Lie To Me
TTITLE22=It Hurts Me Too
TTITLE23=The Jitter Jump
EXTD=EPM Blues Collection 157892, 1992
EXTT0=
EXTT1=
EXTT2=
EXTT3=
EXTT4=
EXTT5=
EXTT6=
EXTT7=
EXTT8=
EXTT9=
EXTT10=
EXTT11=
EXTT12=
EXTT13=
EXTT14=
EXTT15=
EXTT16=
EXTT17=
EXTT18=
EXTT19=
EXTT20=
EXTT21=
EXTT22=
EXTT23=
PLAYORDER=
